<svg xmlns="http://www.w3.org/2000/svg" viewBox="0 0 16 16"><path d="M14.22,0H1.78A1.78,1.78,0,0,0,0,1.78V14.22A1.78,1.78,0,0,0,1.78,16H14.22A1.78,1.78,0,0,0,16,14.22V1.78A1.78,1.78,0,0,0,14.22,0ZM3.1111,5.4782a7.8931,7.8931,0,0,1,.949-.91A8.5608,8.5608,0,0,1,5.1492,3.817,8.92,8.92,0,0,1,6.3863,3.22q.226-.0885.4517-.1631t.4526-.1362q.2274-.0618.4542-.11.2287-.049.4564-.0845l.1243-.268a.1255.1255,0,0,1,.03-.0408l.02-.0148.0222-.0112a.1532.1532,0,0,1,.06-.01A.156.156,0,0,1,8.49,2.386a.1612.1612,0,0,1,.0317.0113l.5106.2426.6824.3246a.1243.1243,0,0,1,.0422.0284.03.03,0,0,1,.0071.0308.0764.0764,0,0,1-.0285.0334.3607.3607,0,0,1-.0644.0368l-.9142.438-.95.4547-.0108.0051-.011.0047-.01.0044-.01.004a.29.29,0,0,1-.07.0182.0863.0863,0,0,1-.0469-.0054.0343.0343,0,0,1-.02-.0276.09.09,0,0,1,.0108-.0485l.16-.345q-.1534.0241-.3079.0567t-.3081.0738q-.1539.0412-.3083.0912t-.3086.1091a6.3082,6.3082,0,0,0-.9406.4518,5.9889,5.9889,0,0,0-.817.5756,5.3705,5.3705,0,0,0-.6882.6906,4.4531,4.4531,0,0,0-.5319.8008l-1.2591.1149A6.8009,6.8009,0,0,1,3.1111,5.4782Zm6.7212,7.1546q-.1588.065-.321.1238t-.3265.1115q-.1642.0525-.3312.0988a7.6929,7.6929,0,0,1-3.3682.2067,5.4169,5.4169,0,0,1-2.0714-.7985l0,.0013-.0372-.0257-.036-.0233,0-.0012c-.0811-.0557-.16-.1127-.236-.1724a3.8458,3.8458,0,0,1-1.4856-3.421l-.5262.1838a.1862.1862,0,0,1-.0815.0138.0358.0358,0,0,1-.034-.028.1052.1052,0,0,1,.0146-.0634.4832.4832,0,0,1,.0632-.093l.713-.8544.7781-.9329c.01-.012.02-.0228.0289-.0324a.3658.3658,0,0,1,.0273-.0255.2245.2245,0,0,1,.0262-.0189.14.14,0,0,1,.025-.0122.0981.0981,0,0,1,.0241-.0058.0859.0859,0,0,1,.0234.0007.0979.0979,0,0,1,.0228.0072.1287.1287,0,0,1,.0225.0137l.5355.3929.6321.4633a.1234.1234,0,0,1,.0455.057.0825.0825,0,0,1-.0024.0612.15.15,0,0,1-.0485.0582.3286.3286,0,0,1-.0912.0469l-.5948.2078a2.3631,2.3631,0,0,0,.394,1.1016,2.6842,2.6842,0,0,0,.9382.84c.0161.009.0316.0186.0479.0273a3.9068,3.9068,0,0,0,1.5734.4255,5.5713,5.5713,0,0,0,2.0063-.2509q.0893-.0276.1774-.0575t.1749-.0626q.087-.0326.1725-.0674t.17-.0722l1.2695,2.4409Q9.9911,12.5681,9.8323,12.6328Zm4.93-2.1829a.293.293,0,0,1-.124.0641l-.0211.0056-.0223.005-.0234.0044-.0247.0038-1.9021.2569-2.1212.2858a.4647.4647,0,0,1-.1415.0015.1956.1956,0,0,1-.0971-.0428.1809.1809,0,0,1-.0541-.0877.4048.4048,0,0,1-.0135-.1332l.0378-1.5939L10.29,7.8155a.3072.3072,0,0,1,.0091-.0671.1964.1964,0,0,1,.0222-.0532.1453.1453,0,0,1,.0334-.0385.1358.1358,0,0,1,.0431-.0235.1545.1545,0,0,1,.0422-.0074.1976.1976,0,0,1,.0472.0038.2793.2793,0,0,1,.0514.0157.39.39,0,0,1,.0551.0283l.6991.43a3.98,3.98,0,0,0,.4713-.9327,3.0551,3.0551,0,0,0,.1694-.9014c.0016-.056.001-.1116-.0009-.1668a2.4616,2.4616,0,0,0-.1086-.6506,2.3818,2.3818,0,0,0-.3553-.7,2.5534,2.5534,0,0,0-.3734-.4064,2.8324,2.8324,0,0,0-.4344-.3129,3.267,3.267,0,0,0-.4771-.23,3.773,3.773,0,0,0-.5062-.1556l.8154-.9357a6.2427,6.2427,0,0,1,.754.1637,5.49,5.49,0,0,1,.7417.2687,4.8315,4.8315,0,0,1,.714.3929,4.34,4.34,0,0,1,.6623.5425,3.876,3.876,0,0,1,.7407,1.03,3.776,3.776,0,0,1,.3633,1.2619h0l.0038.0312a4.3972,4.3972,0,0,1-.12,1.5143,5.67,5.67,0,0,1-.71,1.6311l.9671.594a.5918.5918,0,0,1,.1386.112.19.19,0,0,1,.0511.1061A.1118.1118,0,0,1,14.7623,10.45Z"/></svg>