<svg viewBox="0 0 16 16" xmlns="http://www.w3.org/2000/svg"><path d="m11 3v-3h-9v16h12v-13z" fill="#5ebb47"/><path d="m8.01641 5.00561a4.01407 4.01407 0 0 1 3.98347 4.04444v.00583a3.99351 3.99351 0 0 1 -2.12446 3.544l.0665-.285-.09949.0635a1.26168 1.26168 0 0 1 -.23235.095 1.079 1.079 0 0 1 -.29874.0316.57542.57542 0 0 1 -.365-.095.39743.39743 0 0 1 -.09954-.31644 1.65513 1.65513 0 0 1 .03319-.285c.0235-.13449.0365-.274.0665-.37949l.3985-1.329a2.151 2.151 0 0 0 .06639-.41139 2.31043 2.31043 0 0 0 0-.3164.92432.92432 0 0 0 -.29874-.72778 1.24077 1.24077 0 0 0 -.863-.285 2.25718 2.25718 0 0 0 -.66464.1268c-.2265.0725-.45149.1525-.697.253h-.0335l-.13256.56972.0995-.0635c.07249-.0275.16649-.0335.26549-.06349a.9255.9255 0 0 1 .26555-.06325.51779.51779 0 0 1 .365.095.435.435 0 0 1 .09955.31645 1.70211 1.70211 0 0 1 -.0332.31644c-.022.112-.0665.221-.0995.348l-.36489 1.36082a3.76184 3.76184 0 0 0 -.0664.37974 2.23518 2.23518 0 0 0 -.0332.3164.945.945 0 0 0 .33194.72778c.0105.009.0225.023.033.0315a3.98893 3.98893 0 0 1 -3.58478-3.95501 4.04207 4.04207 0 0 1 4.01641-4.05027m1.06218.91763a.94173.94173 0 0 0 -.96263.91763.85089.85089 0 0 0 .29894.63289.99707.99707 0 0 0 1.32773 0 .82418.82418 0 0 0 .26559-.63289.89522.89522 0 0 0 -.26559-.66448.92194.92194 0 0 0 -.664-.25315" fill="#fff"/><path d="m11 0 3 3h-3z" fill="#448136"/></svg>