<!DOCTYPE svg PUBLIC "-//W3C//DTD SVG 1.1//EN" "http://www.w3.org/Graphics/SVG/1.1/DTD/svg11.dtd"><svg t="1597560987977" class="icon" viewBox="0 0 1024 1024" version="1.1" xmlns="http://www.w3.org/2000/svg" p-id="2668" xmlns:xlink="http://www.w3.org/1999/xlink" width="200" height="200"><path d="M512 73.106c-248.508 0-450 201.456-450 450 0 198.828 128.934 367.506 307.728 426.996 22.482 4.158 30.762-9.756 30.762-21.654 0-10.728-0.414-46.188-0.612-83.772-125.19 27.216-151.614-53.1-151.614-53.1-20.466-52.002-49.968-65.844-49.968-65.844-40.824-27.936 3.078-27.36 3.078-27.36 45.18 3.168 68.976 46.368 68.976 46.368 40.14 68.796 105.264 48.906 130.968 37.404 4.032-29.088 15.696-48.942 28.566-60.174-99.954-11.376-205.02-49.968-205.02-222.39 0-49.122 17.586-89.28 46.368-120.78-4.68-11.34-20.088-57.096 4.356-119.088 0 0 37.8-12.078 123.786 46.134 35.892-9.972 74.394-14.976 112.644-15.156 38.232 0.18 76.752 5.166 112.716 15.156 85.896-58.23 123.624-46.134 123.624-46.134 24.498 61.992 9.09 107.748 4.428 119.088 28.854 31.518 46.314 71.658 46.314 120.78 0 172.836-105.282 210.888-205.488 222.03 16.146 13.968 30.528 41.346 30.528 83.322 0 60.21-0.522 108.666-0.522 123.498 0 11.97 8.1 26.01 30.906 21.6 178.704-59.562 307.476-228.186 307.476-426.942 0-248.544-201.474-450-450-450z" p-id="2669"></path></svg>