<svg viewBox="0 0 16 16" xmlns="http://www.w3.org/2000/svg"><path d="m11 3v-3h-9v16h12v-13z" fill="#b755a0"/><path d="m6.411 7.77212c.10956 0 .10956-.10378 0-.2075l-.32882-.31121v-.415a.21949.21949 0 0 0 -.43832 0v.5187l-.32876.20749v-.31119a.22971.22971 0 0 0 -.21919-.20749c-.10963 0-.10963.10372 0 .10372v1.34861l-.32875.2075a.10351.10351 0 0 0 -.10965-.10375.22971.22971 0 0 0 -.21919.2075v.10371h-.10957c-.10956 0-.10956.10372-.10956.2075s0 .10371.10956.10371v.51871l-.10956.10378v.20743c0 .10378.10956.10378.10956.10378v.7262l-.21919.10371c-.10956.00003-.10956.10375-.10956.20753s0 .10371.10956.10371h.21919v.31121l-.21919.10378v1.45234c.21919.93369.98633.83 1.31509.83h.98635v-2.6973l-.2192-.20749v-.41493c0 .10372.10957.10372.2192 0 .10956 0 .10956-.10378 0-.20749l-.32882-.31121v-.51874c0 .10372.10962.10372.21919 0 .10963 0 .10963-.10378 0-.20749l-.32876-.31121v-.51874h.10957c.10962 0 .21919 0 .21919-.10378s0-.20743-.10957-.20743v-.5187c-.00002.10374.10955.10374.2192.00003zm-1.42474 3.31966-.43831.10378v-.31121l.43831-.2075zm0-.72614-.43831.10372v-.415l.43831-.20743zm0-.93369-.43826.20749v-.5187l.43831-.2075zm.65758 1.34862-.32876.10378v-.415l.32876-.10372zm0-.82992-.32876.2075v-.51871l.32876-.20744zm0-.93369-.32876.20749v-.5187l.32876-.10375zm0-.82992-.32876.2075v-.51871l.32876-.20749zm4.27394 1.24496v-.7262h.10963c.10956.10378.10956.10378.32875 0 .10956-.10372.10956-.10372 0-.2075l-.32875-.20743v-.62253l.10956-.10372v-.415l-.10956-.10372v-.415h.10959c.10963 0 .10963-.10371 0-.20749l-.10956-.10372v-1.14109a.10355.10355 0 0 0 -.10963-.10378s-.10956 0-.10956.10378l-.32876-.31128v-1.65983a.21952.21952 0 0 0 -.43838 0v1.65983l-.32876.2075v-1.55612a.21952.21952 0 0 0 -.43838 0v1.6599l-.32878.2074v-.9336a.13869.13869 0 0 1 0-.2075.22972.22972 0 0 0 -.2192.2075v2.07482l-.32875.20749v-1.4524a.21949.21949 0 0 0 -.43832 0v2.59352l-.21919.10372c-.10963 0-.10963.10378-.10963.20749s0 .10378.10963.10378h.10956l.10963-.10382v.62249l-.21919.10371c-.10963 0-.10963.10372-.10963.2075s0 .10371.10963.10371h.21919v.415l-.32882.2075v3.83839h2.63017v-3.63093l.65751-.51871zm-2.30135 0-.32875.10371v-.51871l.32875-.20743zm0-.9337-.32875.1037v-.5187l.32875-.2075zm0-1.0374-.32875.20749v-.62247h.10956l.21919-.20749zm.65751 1.65989-.32875.10371v-.6225l.32875-.10378zm0-1.03741-.32875.20749v-.62253l.32875-.20749zm0-.93369-.32875.20749v-.62247l.32875-.20749zm0-.93363-.32875.10371v-.62247h.10962l.21913-.10378zm.65758 2.59352-.32876.10371v-.62247l.32876-.20749zm0-1.03741-.32876.10371v-.5187l.32876-.20749zm0-1.03741-.32876.20743v-.62247l.32876-.10372zm0-.93369-.32876.20749v-.62256l.32876-.10372zm.65748 3.31967-.32875-.2075v-.72624l.32875.2075zm0-1.14119-.32875-.20743v-.51871l.32875.20744zm0-.93363-.32875-.20749v-.51871l.32875.31121zm0-.82991-.32875-.31128v-.51873l.32875.3113zm.10963 3.94214 1.20546-1.03741.98633 1.14112c.10958-.10371.10958.7262.10958.7262l-.8767-.7262-.10963-.10371-.10956.10371-1.20546.82992zm2.19179 1.14112.10958.93373-.8767-.7262-.10963-.10372-.10956.10372-1.31511.7262v-.9337l1.31509-.82991zm0 1.34862c.10958 0 .10958 1.03741.10958 1.03741h-2.411v-1.03741l1.31509-.82991z" fill="#fff"/><path d="m11 0 3 3h-3z" fill="#7e3d6f"/></svg>