<svg viewBox="0 0 16 16" xmlns="http://www.w3.org/2000/svg"><path d="m11 3v-3h-9v16h12v-13z" fill="#dd3e39"/><path d="m6.3322 3.37a15.549 15.549 0 0 1 -1.2538-1.339 1.32149 1.32149 0 0 0 -.114-.94c-.1367-.1424-.2963-.114-.41.0569-.0228.0285-.0228.0855-.0456.1424a.76658.76658 0 0 0 .1824.6265l.1824.228c-.0763.3571-.2162 1.0523-.3133 1.52a.64631.64631 0 0 1 -.25.3856c-.2539.1914-.57.5014-.3255.828.2812.3719.5624-.2007.6955-.543a.63282.63282 0 0 1 .3043-.3467 3.06 3.06 0 0 1 1.0794-.2958.5.5 0 0 1 .4045.1775c1.1846 1.3056 1.6443-.4729.1151-.4729zm-2.208 1.3949c-.1823-.0854.0228-.4841.3648-.57-.114.3987-.2508.6265-.3648.57m.6839-3.0472a.64141.64141 0 0 1 -.1595-.3987c0-.0569.0228-.114.0911-.114a.16232.16232 0 0 1 .0912.057 2.26 2.26 0 0 1 .0684.57l-.0912-.114m-.0912 2.079c.0912-.4557.228-1.0537.2736-1.4809.2508.3133.5927.6835.98 1.0822a4.06983 4.06983 0 0 0 -1.2538.3987m1.8465-.114a2.21168 2.21168 0 0 1 .4331.0285c.456.0569.2964.5411.0228.37a1.69335 1.69335 0 0 1 -.4557-.3989zm-2.5632 4.917v5.4l1-1h6.375a.6129.6129 0 0 0 .625-.6v-3.8a.6129.6129 0 0 0 -.625-.6h-6.75a.6129.6129 0 0 0 -.625.6zm7 1.4h-6v-1h6zm-6 2v-1h5v1z" fill="#fff"/><path d="m11 0 3 3h-3z" fill="#992d2b"/></svg>