<svg viewBox="0 0 20 20" xmlns="http://www.w3.org/2000/svg"><path d="m2.5 2.5h15v15h-15z" fill="#f60"/><path d="m17 3v14h-14v-14zm1-1h-16v16h16z"/><path d="m12.33789 13.37939h-4.65723v-.97949l1.67286-1.6914q.74267-.76026.9707-1.05469a2.30073 2.30073 0 0 0 .32812-.54492 1.39233 1.39233 0 0 0 .09961-.51953.75713.75713 0 0 0 -.2207-.59668.85545.85545 0 0 0 -.58984-.19629 1.7002 1.7002 0 0 0 -.752.17773 3.91981 3.91981 0 0 0 -.76168.50588l-.76562-.90625a4.93672 4.93672 0 0 1 .81641-.59275 3.00155 3.00155 0 0 1 .70605-.2666 3.60587 3.60587 0 0 1 .85645-.09375 2.53535 2.53535 0 0 1 1.10351.22851 1.75452 1.75452 0 0 1 .74219.6377 1.68929 1.68929 0 0 1 .26465.93847 2.30884 2.30884 0 0 1 -.16114.86426 3.34661 3.34661 0 0 1 -.502.82715 12.30255 12.30255 0 0 1 -1.19629 1.207l-.85644.80664v.06445h2.90234z"/></svg>