<svg xmlns="http://www.w3.org/2000/svg" viewBox="0 0 16 16"><path d="M5.37573,10.25a1.52519,1.52519,0,0,0,1.11407-.401A1.39339,1.39339,0,0,0,6.9,8.8064a1.34074,1.34074,0,0,0-.17932-.73059,1.19932,1.19932,0,0,0-.55536-.4447A2.95814,2.95814,0,0,0,5.808,7.50275q-.16617-.0466-.3465-.09625a.94667.94667,0,0,1-.3739-.16766.34236.34236,0,0,1-.09894-.264.34768.34768,0,0,1,.06152-.20264.40089.40089,0,0,1,.1474-.13269.67023.67023,0,0,1,.20123-.07147,1.17487,1.17487,0,0,1,.21008-.01892,1.31354,1.31354,0,0,1,.58618.14136,1.67844,1.67844,0,0,1,.485.35144h.09021V6.04163a2.4579,2.4579,0,0,0-.54663-.2085,2.49882,2.49882,0,0,0-.639-.08313A1.48268,1.48268,0,0,0,4.53,6.13348a1.29428,1.29428,0,0,0-.41022.99011,1.45725,1.45725,0,0,0,.18146.75684,1.2251,1.2251,0,0,0,.595.48267,2.42016,2.42016,0,0,0,.386.12976q.20554.05109.39038.10938a.5796.5796,0,0,1,.26727.15894.36056.36056,0,0,1,.09125.24646.36885.36885,0,0,1-.06268.23328.51293.51293,0,0,1-.15948.13123.6415.6415,0,0,1-.20453.05835A1.53623,1.53623,0,0,1,5.4021,9.448a1.494,1.494,0,0,1-.62354-.14874,1.88226,1.88226,0,0,1-.58618-.42578H4.1V9.91461a3.0587,3.0587,0,0,0,.56641.2406A2.38014,2.38014,0,0,0,5.37573,10.25Z"/><path d="M14.22,0H1.78A1.78,1.78,0,0,0,0,1.78V14.22A1.78,1.78,0,0,0,1.78,16H14.22A1.78,1.78,0,0,0,16,14.22V1.78A1.78,1.78,0,0,0,14.22,0ZM9,14,2,12.5v-9L9,2Zm3.88885-4.8772-.02264-.00128a3.19755,3.19755,0,0,1-1.15472,1.58954c.00092.02032.00281.04034.00281.06085A1.174,1.174,0,0,1,10.60315,12,1.03048,1.03048,0,0,1,10,11.80237V9.74146a1.03048,1.03048,0,0,1,.60315-.19763,1.09989,1.09989,0,0,1,.97418.63757A2.645,2.645,0,0,0,12.42389,9.009a1.28836,1.28836,0,0,1-.07031-2.19025,2.60387,2.60387,0,0,0-.87183-1.0708,1.10929,1.10929,0,0,1-1.00555.70819A1.0185,1.0185,0,0,1,10,6.33636V4.11975A1.01869,1.01869,0,0,1,10.4762,4a1.17078,1.17078,0,0,1,1.11,1.20416,3.14755,3.14755,0,0,1,1.20276,1.46808c.033-.00323.06622-.00562.1-.00562A1.174,1.174,0,0,1,14,7.89471,1.174,1.174,0,0,1,12.88885,9.1228Z"/></svg>