<svg xmlns="http://www.w3.org/2000/svg" viewBox="0 0 16 16"><path d="M14.33331,9.40351l-.034-.00158a4.12857,4.12857,0,0,1-1.73211,1.98693c.00136.02536.00418.05038.00418.07605A1.60494,1.60494,0,0,1,10.90475,13,1.76125,1.76125,0,0,1,10,12.753v-.72235h0V11.322h0V10.17683a1.76125,1.76125,0,0,1,.90475-.247,1.69209,1.69209,0,0,1,1.46129.797,3.40815,3.40815,0,0,0,1.26981-1.46553,1.48242,1.48242,0,0,1-.10548-2.73787,3.4603,3.4603,0,0,0-1.30773-1.33851,1.67966,1.67966,0,0,1-1.50835.8853A1.77555,1.77555,0,0,1,10,5.92046V4.678h0V3.96935h0V3.14971A1.77565,1.77565,0,0,1,10.71429,3a1.6071,1.6071,0,0,1,1.665,1.50521A4.19033,4.19033,0,0,1,14.18344,6.3403c.04946-.00407.09929-.007.1499-.007A1.60494,1.60494,0,0,1,16,7.8684,1.605,1.605,0,0,1,14.33331,9.40351Z"/><path d="M0,2V14l9,2V0Zm5.7726,8.46533A1.92082,1.92082,0,0,1,4.3402,11a2.95776,2.95776,0,0,1-.912-.1264A3.84916,3.84916,0,0,1,2.7,10.5528V9.16461h.11876a2.4258,2.4258,0,0,0,.75366.56775,1.86537,1.86537,0,0,0,.80173.1983,1.91183,1.91183,0,0,0,.26021-.02332.8033.8033,0,0,0,.263-.07782.66575.66575,0,0,0,.20506-.175.50529.50529,0,0,0,.08058-.311.49128.49128,0,0,0-.11733-.32861A.74057.74057,0,0,0,4.722,8.803q-.23755-.07773-.502-.14581a3.03584,3.03584,0,0,1-.49636-.173,1.58853,1.58853,0,0,1-.76492-.64355,2.00009,2.00009,0,0,1-.23329-1.00909,1.75745,1.75745,0,0,1,.5274-1.32013A1.86693,1.86693,0,0,1,4.60887,5a3.27448,3.27448,0,0,1,1.5243.38885V6.7226h-.116A2.16225,2.16225,0,0,0,5.39363,6.254,1.63947,1.63947,0,0,0,4.64,6.06549a1.45772,1.45772,0,0,0-.2701.02527.84174.84174,0,0,0-.25873.09528.52183.52183,0,0,0-.18951.17694.47546.47546,0,0,0-.07916.2702.46585.46585,0,0,0,.12722.35193,1.19788,1.19788,0,0,0,.48076.22357q.23187.06619.44544.12836a3.71538,3.71538,0,0,1,.4595.17108,1.55508,1.55508,0,0,1,.71406.593A1.83988,1.83988,0,0,1,6.3,9.0752,1.89475,1.89475,0,0,1,5.7726,10.46533Z"/></svg>