<svg viewBox="0 0 16 16" xmlns="http://www.w3.org/2000/svg"><path d="m11 3v-3h-9v16h12v-13z" fill="#ced4d8"/><g fill="#909497"><path d="m11.21 9.3892a2.70616 2.70616 0 0 1 .0187-.38v-.019a2.70616 2.70616 0 0 1 -.0187-.38c.0286-.1827.2408-.3811.3357-.5116a.62519.62519 0 0 0 .1534-.6816c-.0747-.1668-.19-.293-.2812-.4686-.148-.2844-.2867-.61-.7106-.5956-.2974.01-.6235.1588-.8661-.0178a5.51049 5.51049 0 0 0 -.5114-.29c-.2289-.1277-.2944-.5024-.4-.7327-.1553-.3367-.56-.3189-.93-.3093-.3691-.01-.7742-.0274-.9295.3093-.1061.23-.1716.605-.4005.7327a5.51179 5.51179 0 0 0 -.5114.29c-.2426.1766-.5687.0282-.8661.0178-.4239-.0149-.5626.3112-.7106.5956-.0913.1756-.2065.3018-.2812.4686a.62521.62521 0 0 0 .1534.6816c.0949.13.3071.3289.3357.5116a2.70616 2.70616 0 0 1 -.0187.38l.0007.0098-.0005.01a2.70616 2.70616 0 0 1 .0187.38c-.0286.1827-.2408.3811-.3357.5116a.62521.62521 0 0 0 -.1534.6816c.0747.1668.19.293.2812.4686.148.2844.2867.6105.7106.5956.2974-.01.6235-.1588.8661.0178a5.51049 5.51049 0 0 0 .5114.29c.2289.1277.2944.5024.4005.7327.1553.3367.56.3189.93.3093.3691.01.7742.0274.93-.3093.1061-.23.1716-.605.4-.7327a5.51049 5.51049 0 0 0 .5114-.29c.2426-.1766.5687-.0282.8661-.0178.4239.0149.5626-.3112.7106-.5956.0913-.1756.2065-.3018.2812-.4686a.62519.62519 0 0 0 -.1534-.6816c-.0954-.1316-.3076-.3297-.3364-.5124zm-3.21 1.1092a1.4984 1.4984 0 1 1 1.5015-1.4984 1.49841 1.49841 0 0 1 -1.5015 1.4984z" fill-rule="evenodd"/><path d="m11 0 3 3h-3z"/></g></svg>