<svg viewBox="0 0 16 16" xmlns="http://www.w3.org/2000/svg"><path d="m11 3v-3h-9v16h12v-13z" fill="#d16c00"/><path d="m11.9665 9.6309a3.95941 3.95941 0 0 0 -1.3446-2.6309h1.3781v-1h-2.5921a1.4911 1.4911 0 0 0 -2.8158 0h-2.5921v1h1.3781a3.95941 3.95941 0 0 0 -1.3446 2.6309.99.99 0 0 0 -.5335.8691 1 1 0 0 0 2 0 .98412.98412 0 0 0 -.4709-.8268 2.98911 2.98911 0 0 1 1.7037-2.3788 1.49069 1.49069 0 0 0 2.5344 0 2.98911 2.98911 0 0 1 1.7037 2.3788.98412.98412 0 0 0 -.4709.8268 1 1 0 0 0 2 0 .99.99 0 0 0 -.5335-.8691zm-3.9665-2.6309a.5.5 0 1 1 .5-.5.5.5 0 0 1 -.5.5z" fill="#fff"/><path d="m14 3h-3v-3z" fill="#924b00"/></svg>